HIERARCHY
ROOT Hips
{
	OFFSET 0.000000 0.000000 0.000000
	CHANNELS 6 Xposition Yposition Zposition Xrotation Yrotation Zrotation
	JOINT LeftUpLeg_virtual
	{
		OFFSET 0.000000 0.000000 0.000000
		CHANNELS 3 Xrotation Yrotation Zrotation
		JOINT LeftUpLeg
		{
			OFFSET 10.205400 -3.823500 0.155100
			CHANNELS 3 Xrotation Yrotation Zrotation
			JOINT LeftLeg
			{
				OFFSET 0.708757 -12.982077 0.567790
				CHANNELS 3 Xrotation Yrotation Zrotation
				JOINT LeftFoot
				{
					OFFSET -0.708756 -10.717838 -2.184338
					CHANNELS 3 Xrotation Yrotation Zrotation
					JOINT LeftToeBase
					{
						OFFSET 0.108149 -7.191104 7.560241
						CHANNELS 3 Xrotation Yrotation Zrotation
						JOINT LeftToe_End
						{
							OFFSET 0.070230 0.081724 4.490308
							CHANNELS 3 Xrotation Yrotation Zrotation
							End Site
							{
								OFFSET 0 0 0
							}
						}
					}
				}
			}
		}
	}
	JOINT RightUpLeg_virtual
	{
		OFFSET 0.000000 0.000000 0.000000
		CHANNELS 3 Xrotation Yrotation Zrotation
		JOINT RightUpLeg
		{
			OFFSET -10.205400 -3.823500 0.005500
			CHANNELS 3 Xrotation Yrotation Zrotation
			JOINT RightLeg
			{
				OFFSET -0.708756 -12.982134 0.610632
				CHANNELS 3 Xrotation Yrotation Zrotation
				JOINT RightFoot
				{
					OFFSET 0.708754 -10.717769 -1.945823
					CHANNELS 3 Xrotation Yrotation Zrotation
					JOINT RightToeBase
					{
						OFFSET -0.108140 -7.191069 7.372968
						CHANNELS 3 Xrotation Yrotation Zrotation
						JOINT RightToe_End
						{
							OFFSET -0.070227 0.081735 4.479403
							CHANNELS 3 Xrotation Yrotation Zrotation
							End Site
							{
								OFFSET 0 0 0
							}
						}
					}
				}
			}
		}
	}
	JOINT Spine_virtual
	{
		OFFSET 0.000000 0.000000 0.000000
		CHANNELS 3 Xrotation Yrotation Zrotation
		JOINT Spine
		{
			OFFSET 0.000000 6.876099 0.125700
			CHANNELS 3 Xrotation Yrotation Zrotation
			JOINT Spine1
			{
				OFFSET 0.000000 5.730043 0.104720
				CHANNELS 3 Xrotation Yrotation Zrotation
				JOINT Spine1_split
				{
					OFFSET 0.000000 5.730043 0.104720
					CHANNELS 3 Xrotation Yrotation Zrotation
					JOINT Spine2
					{
						OFFSET 0.000000 5.730043 0.104720
						CHANNELS 3 Xrotation Yrotation Zrotation
						JOINT Neck_virtual
						{
							OFFSET 0.000000 0.000000 0.000000
							CHANNELS 3 Xrotation Yrotation Zrotation
							JOINT Neck
							{
								OFFSET 0.000000 10.314075 0.188496
								CHANNELS 3 Xrotation Yrotation Zrotation
								JOINT Head
								{
									OFFSET 0.000000 7.643700 -2.377400
									CHANNELS 3 Xrotation Yrotation Zrotation
									JOINT HeadTop_End
									{
										OFFSET 0.000000 43.788605 -13.619600
										CHANNELS 3 Xrotation Yrotation Zrotation
										End Site
										{
											OFFSET 0 0 0
										}
									}
								}
							}
						}
						JOINT LeftShoulder_virtual
						{
							OFFSET 0.000000 0.000000 0.000000
							CHANNELS 3 Xrotation Yrotation Zrotation
							JOINT LeftShoulder
							{
								OFFSET 2.196100 4.412489 0.087492
								CHANNELS 3 Xrotation Yrotation Zrotation
								JOINT LeftShoulder_split
								{
									OFFSET 2.196100 4.412489 0.087492
									CHANNELS 3 Xrotation Yrotation Zrotation
									JOINT LeftArm
									{
										OFFSET 8.771219 -2.981674 -0.026999
										CHANNELS 3 Xrotation Yrotation Zrotation
										JOINT LeftForeArm
										{
											OFFSET 8.512804 0.000000 -0.000000
											CHANNELS 3 Xrotation Yrotation Zrotation
											JOINT LeftHand
											{
												OFFSET 18.484802 0.000000 -0.000000
												CHANNELS 3 Xrotation Yrotation Zrotation
												End Site
												{
													OFFSET 0 0 0
												}
											}
										}
									}
								}
							}
						}
						JOINT RightShoulder_virtual
						{
							OFFSET 0.000000 0.000000 0.000000
							CHANNELS 3 Xrotation Yrotation Zrotation
							JOINT RightShoulder
							{
								OFFSET -2.196100 4.412496 0.070690
								CHANNELS 3 Xrotation Yrotation Zrotation
								JOINT RightShoulder_split
								{
									OFFSET -2.196100 4.412496 0.070690
									CHANNELS 3 Xrotation Yrotation Zrotation
									JOINT RightArm
									{
										OFFSET -8.771282 -2.981682 -0.094208
										CHANNELS 3 Xrotation Yrotation Zrotation
										JOINT RightForeArm
										{
											OFFSET -8.494598 0.000000 0.000000
											CHANNELS 3 Xrotation Yrotation Zrotation
											JOINT RightHand
											{
												OFFSET -18.483803 0.000000 0.000001
												CHANNELS 3 Xrotation Yrotation Zrotation
												End Site
												{
													OFFSET 0 0 0
												}
											}
										}
									}
								}
							}
						}
					}
				}
			}
		}
	}
}
MOTION
Frames: 9
Frame Time: 0.03333333
-2.775242 30.670683 6.437038 0.000000 0.000000 0.000000 -4.112874 -26.025761 -1.604269 -35.835977 -4.955338 5.973445 37.962980 -2.722103 3.411933 -9.311360 -7.163695 -6.784549 0.739054 0.358586 2.467172 0.000000 0.000000 0.000000 -8.075947 -21.236791 -0.967737 -11.991944 -6.989554 2.031363 43.671062 6.153697 -3.198834 -26.998391 -0.633055 2.188596 -1.372840 2.149668 3.890897 0.000000 0.000000 0.000000 -5.679763 -38.466235 -1.994444 13.387745 8.264651 3.720324 -3.628331 18.950182 1.118763 -0.796892 5.235401 0.845502 0.000000 0.000000 0.000000 13.520302 21.601723 -5.031753 -3.358936 15.007637 3.085806 5.433799 50.271056 -4.951301 0.000000 0.000000 0.000000 12.773201 22.428738 -4.255790 7.398729 -9.632357 -4.801643 4.056799 -9.894393 -3.450047 -33.124765 4.148292 -54.811339 -83.467555 12.869382 -85.929333 0.000000 0.000000 0.000000 16.317141 22.140418 -5.729402 5.142712 20.495284 -9.203752 -11.523029 -0.890803 -10.043799 -0.415574 35.800355 50.519218 -122.644625 70.208389 113.224387 0.000000 0.000000 0.000000 
-3.143304 30.609344 6.033688 0.000000 0.000000 0.000000 -4.732108 -23.615647 -0.875156 -34.298410 -2.821033 6.106408 33.120666 -1.812878 3.179185 -9.882431 -7.496175 -8.447849 1.277195 0.818037 2.465462 0.000000 0.000000 0.000000 -8.540298 -18.447948 -0.225281 -10.587548 -7.389532 1.300897 42.562686 5.453751 -1.626763 -27.375612 0.092296 1.304902 -0.398808 2.410752 3.732508 0.000000 0.000000 0.000000 -7.052379 -35.297830 -1.788003 14.623671 7.964817 3.783343 -3.855525 19.149754 0.727448 -0.414505 4.896972 1.048900 0.000000 0.000000 0.000000 13.809490 21.507608 -5.395190 -5.642416 15.064882 2.631798 6.028553 49.642802 -5.426188 0.000000 0.000000 0.000000 12.594129 22.501039 -4.482858 7.530442 -9.294425 -4.742929 5.856763 -10.625076 -3.630037 -34.882001 5.082590 -54.741924 -84.888098 12.748953 -86.426072 0.000000 0.000000 0.000000 15.666859 21.885154 -6.116248 4.827678 20.985526 -8.655140 -11.858265 -0.700752 -10.355498 0.305583 36.539480 48.225582 -123.573490 69.132333 114.172390 0.000000 0.000000 0.000000 
-3.399416 30.591408 5.767955 0.000000 0.000000 0.000000 -5.305932 -21.293369 -0.363009 -32.975368 0.479821 7.400048 29.190333 -0.529942 2.859729 -10.410872 -7.275538 -9.876990 1.329001 1.356920 2.442901 0.000000 0.000000 0.000000 -8.686695 -15.999394 0.398318 -9.550050 -7.476895 0.094204 42.015543 4.589769 -0.128481 -27.758007 0.437443 0.491984 0.717946 2.612709 3.236955 0.000000 0.000000 0.000000 -8.060412 -32.452428 -1.596726 15.842830 7.612377 3.672124 -4.127420 19.075943 0.368354 -0.170188 4.467049 1.133798 0.000000 0.000000 0.000000 13.862969 21.251910 -5.610088 -8.297495 15.025788 2.867580 6.939873 48.871093 -5.934340 0.000000 0.000000 0.000000 12.398866 22.272999 -4.719054 7.915802 -9.450553 -3.772633 7.428668 -10.934423 -4.090746 -36.271306 4.382437 -54.204477 -85.853477 12.599012 -85.722207 0.000000 0.000000 0.000000 14.811342 21.443731 -6.286976 4.367695 21.319457 -7.749175 -10.618841 0.264712 -11.142927 1.066188 37.692740 45.631531 -125.247761 68.584866 115.883681 0.000000 0.000000 0.000000 
-3.455040 30.662086 5.665496 0.000000 0.000000 0.000000 -5.677038 -18.856539 -0.199276 -32.149130 4.303541 9.795349 27.546054 1.014264 2.524457 -10.854792 -6.663261 -10.852178 0.634631 1.975292 2.439123 0.000000 0.000000 0.000000 -8.538569 -13.619157 0.803728 -8.821860 -7.280155 -1.081657 41.703677 3.486618 1.082073 -28.063982 0.331957 -0.327684 1.464701 2.723559 2.593874 0.000000 0.000000 0.000000 -8.383323 -29.613634 -1.400420 16.704413 7.342606 3.395334 -4.463897 18.833821 0.199507 -0.200859 3.949182 1.012579 0.000000 0.000000 0.000000 13.695269 20.953190 -5.581439 -10.784683 14.582471 3.887193 7.373336 47.746509 -6.172284 0.000000 0.000000 0.000000 11.907351 21.893102 -4.746003 8.446251 -10.016945 -1.989862 8.680966 -11.264286 -4.486558 -37.423102 2.904422 -53.181403 -86.728185 12.454912 -84.290784 0.000000 0.000000 0.000000 13.756211 20.956619 -6.097471 3.737796 21.329397 -6.678681 -8.233707 1.868544 -12.315844 1.952400 38.773737 42.591994 -129.139398 68.558461 119.685255 0.000000 0.000000 0.000000 
-3.359473 30.882690 5.653837 0.000000 0.000000 0.000000 -5.627108 -15.899000 -0.412409 -32.104587 8.011396 13.147481 28.934922 2.773361 2.061152 -11.631866 -5.816458 -11.492677 -0.239278 2.665985 2.383341 0.000000 0.000000 0.000000 -8.307923 -11.125381 0.874923 -8.584803 -6.960436 -2.125848 41.153392 2.243694 1.825189 -28.120210 -0.165193 -0.859543 1.140743 2.720350 1.984058 0.000000 0.000000 0.000000 -7.922762 -26.672727 -1.215789 16.854112 7.199841 3.001685 -4.924232 18.374484 0.327513 -0.454896 3.284750 0.632869 0.000000 0.000000 0.000000 13.314538 20.578061 -5.243594 -12.398868 13.700029 5.234417 6.920365 46.193546 -6.127895 0.000000 0.000000 0.000000 11.071238 21.404544 -4.436412 8.988543 -10.756529 0.330828 9.664178 -12.193798 -4.603278 -38.223672 1.874684 -51.737109 -88.320985 12.189636 -83.011414 0.000000 0.000000 0.000000 12.614488 20.442517 -5.450548 3.055810 20.772316 -5.742625 -5.777441 3.035374 -13.635860 2.459419 39.015861 39.568129 -136.451484 68.589921 126.674082 0.000000 0.000000 0.000000 
-3.199605 31.247274 5.680409 0.000000 0.000000 0.000000 -5.316757 -12.149810 -0.899830 -32.590678 11.044216 17.306301 33.096525 4.335094 1.416990 -12.581372 -4.906177 -12.666176 -0.951016 3.436777 2.309587 0.000000 0.000000 0.000000 -8.297303 -8.261438 0.680395 -8.859717 -6.786677 -3.106616 40.489491 0.984412 2.057555 -27.962202 -0.965833 -0.862554 -0.184353 2.586626 1.574073 0.000000 0.000000 0.000000 -6.966679 -23.194528 -1.076884 16.074586 7.233728 2.569072 -5.374911 17.599096 0.733631 -1.060766 2.961715 0.376413 0.000000 0.000000 0.000000 12.824266 20.012589 -4.616542 -12.686871 12.755269 6.430100 5.598475 44.688336 -6.316405 0.000000 0.000000 0.000000 9.921263 20.735763 -3.768859 9.422115 -11.417027 2.731007 10.325486 -13.137100 -4.523432 -38.972417 2.260656 -50.131061 -90.829454 11.844013 -82.207044 0.000000 0.000000 0.000000 11.510567 19.782758 -4.435310 2.549671 19.705381 -5.395701 -4.044658 2.980018 -14.412882 2.372939 37.897458 37.109675 -146.508883 68.009778 136.158155 0.000000 0.000000 0.000000 
-3.091474 31.655174 5.559580 0.000000 0.000000 0.000000 -4.935818 -7.572813 -1.496063 -33.229024 13.345263 21.913419 38.863042 5.384463 0.465517 -13.456938 -4.023739 -15.056406 -1.631883 4.207465 2.502887 0.000000 0.000000 0.000000 -8.507241 -4.820028 0.424739 -9.519569 -6.850550 -4.191035 39.994582 -0.293572 1.803615 -27.931341 -1.893100 -0.468434 -1.149697 2.328795 1.445039 0.000000 0.000000 0.000000 -5.717379 -19.136703 -0.984627 14.434363 7.440810 2.205806 -5.567616 16.394728 1.317576 -1.333249 2.663662 0.001601 0.000000 0.000000 0.000000 12.336647 19.023554 -3.783054 -11.708253 11.947299 6.925612 4.046337 43.473112 -7.269889 0.000000 0.000000 0.000000 8.747972 19.668168 -2.914307 9.745125 -11.872397 4.674570 10.772881 -13.425136 -4.275397 -39.613639 4.153013 -48.877257 -93.817074 11.466696 -81.719587 0.000000 0.000000 0.000000 10.559750 18.790981 -3.200995 2.242233 18.362076 -5.796204 -3.399583 1.962416 -14.427098 0.930187 35.416170 35.932099 -156.344355 66.562365 145.236145 0.000000 0.000000 0.000000 
-3.060096 32.010201 5.161652 0.000000 0.000000 0.000000 -4.501865 -2.322584 -1.839691 -33.746595 15.015058 26.593453 44.482136 6.136883 -0.794051 -13.656888 -3.170342 -18.569030 -2.186350 4.884276 3.003002 0.000000 0.000000 0.000000 -8.738501 -0.492551 0.363805 -10.408758 -7.100977 -5.936884 39.868815 -1.494810 1.139355 -28.229387 -2.786358 0.235757 -0.841556 1.954903 1.590327 0.000000 0.000000 0.000000 -4.543290 -14.799934 -0.811366 12.116020 7.716072 2.019735 -5.345696 14.612995 1.903500 -1.033186 2.594517 -0.263652 0.000000 0.000000 0.000000 11.876610 17.416656 -2.909289 -9.707672 11.532411 6.314246 2.863906 42.334694 -8.995214 0.000000 0.000000 0.000000 8.096213 18.027251 -2.185772 9.968031 -11.858311 5.675679 11.286072 -13.249348 -3.656860 -39.693491 6.491137 -48.651625 -96.220563 11.117347 -80.713356 0.000000 0.000000 0.000000 10.067618 17.330248 -2.048358 2.199998 17.058240 -7.069301 -3.322545 0.502371 -13.536679 -1.852235 31.871906 36.428954 -163.132867 64.972721 151.233297 0.000000 0.000000 0.000000 
-3.102765 32.238495 4.603907 0.000000 0.000000 0.000000 -4.361141 2.948265 -1.603180 -33.831805 16.250157 31.087845 48.288358 6.731859 -2.271424 -12.438237 -2.429943 -22.996747 -2.427433 5.433882 3.652042 0.000000 0.000000 0.000000 -8.815522 4.710119 0.747402 -11.264526 -7.393903 -8.638500 40.357283 -2.392847 0.268759 -28.529738 -3.629518 1.543022 0.611360 1.503425 1.946442 0.000000 0.000000 0.000000 -3.944069 -10.363542 -0.514213 9.430736 7.909069 1.941855 -4.600130 12.368411 2.235826 -0.431922 3.028684 -0.209424 0.000000 0.000000 0.000000 11.631045 15.238603 -2.227312 -6.980397 11.457073 4.505653 2.540093 41.366412 -11.342609 0.000000 0.000000 0.000000 8.226447 15.877729 -1.794915 10.107235 -11.247371 5.639175 11.536284 -12.735914 -3.033739 -39.379531 7.613114 -49.741727 -97.064494 11.079265 -78.423692 0.000000 0.000000 0.000000 10.179799 15.352599 -1.279728 2.422373 16.003022 -9.152785 -3.535485 -0.693879 -11.815000 -5.029589 28.048267 38.039530 -166.179841 64.070077 153.595436 0.000000 0.000000 0.000000 
